<?xml version="1.0" encoding="utf-8"?>
<!-- Generator: Adobe Illustrator 26.0.1, SVG Export Plug-In . SVG Version: 6.00 Build 0)  -->
<svg version="1.1" id="Layer_2" xmlns="http://www.w3.org/2000/svg" xmlns:xlink="http://www.w3.org/1999/xlink" x="0px" y="0px"
	 width="640px" height="360px" viewBox="0 0 640 360" style="enable-background:new 0 0 640 360;" xml:space="preserve">
<style type="text/css">
	.st0{fill:#3CB4E6;}
	.st1{fill:#FFFFFF;}
</style>
<g>
	<path class="st0" d="M319.5,342.7c89.1,0,161.4-72.3,161.4-161.4c0-89.1-72.3-161.4-161.4-161.4c-89.1,0-161.4,72.3-161.4,161.4
		C158.1,270.4,230.4,342.7,319.5,342.7L319.5,342.7z"/>
	<g>
		<path class="st1" d="M242,77.2c21-16.2,82.5,10.5,97.4,24.4c-1.1-4.6-1-12.6,2.9-16.5c5.1,1.3,9.3,7.5,11.1,12.4
			c7.1-13.7,58.2-96.3,79.9-64.1c15,22.2,1.6,64.5-15.5,79.7c26.8,13.5,46.1,34.4,22.7,62.1c-27.6,32.7-55.5,3-75.3-18.8
			c4.3,11.2,8.2,28.3,6.1,37.6c-5.2-6.3-11.3-24.6-13.2-36.1c-6.3,26.2-10.1,55.2-42.5,56c-46.8,1-44.4-42.4-26-67.5
			c-23.4,1.9-48.3-36.6-50.8-59.6C238.8,86.8,237.9,80.4,242,77.2"/>
	</g>
	<g>
		<g>
			<path class="st1" d="M218.8,270.6v1.5c0,4.6,1.3,7.6,6.6,7.6c3,0,5.9-1.9,5.9-6.1c0-4.5-2.3-6.2-8.8-8.4
				c-8.8-3-12.9-6.7-12.9-14.9c0-9.6,5.9-14.5,15.3-14.5c8.8,0,15.3,3.8,15.3,13.3v1.4h-9.5c0-4.6-1.6-7.3-5.4-7.3
				c-4.5,0-5.7,2.8-5.7,5.7c0,3,0.9,4.9,5.1,6.7l7.7,3.3c7.5,3.2,9.4,7,9.4,13.1c0,10.4-6.4,15.1-17.1,15.1
				c-11.3,0-15.7-5.3-15.7-14.4v-2H218.8z"/>
			<path class="st1" d="M275.5,236.6v8.2h-10.8V286h-10v-41.2H244v-8.2H275.5z"/>
			<path class="st1" d="M280,236.6h14.8l7.1,34.8h0.1l7.1-34.8h14.7V286h-9.1v-39.4h-0.1l-8.8,39.4h-7.7l-8.8-39.4h-0.1V286H280
				V236.6z"/>
			<path class="st1" d="M340,258.4h3c5.2,0,7.5-3.7,7.5-8.6c0-4.5-1.7-8.2-6.4-8.2c-6.4,0-7.1,5.9-7.1,9.5H331
				c0-8.4,3.9-14.1,13-14.1c10.2,0,12.6,7.3,12.6,12.7c0,4.9-2.5,9.3-7.6,10.5v0.1c5.5,1.1,9.1,4.6,9.1,11.4
				c0,8.9-4.5,15.1-13.9,15.1c-13.1,0-13.9-11.5-13.9-13.6v-0.6h6.1c0,4.5,2.2,9.7,7.8,9.7c3.6,0,7.8-1.8,7.8-10.1
				c0-5.7-2.8-9.3-8.8-9.3H340V258.4z"/>
			<path class="st1" d="M391,286h-27.4c0-9.1,5.1-15.3,10.6-20l4-3.4c3.9-3.4,6.5-6.4,6.5-11.8c0-4.2-1.9-8.8-7.1-8.8
				c-7.5,0-7.7,7.8-7.7,10.6h-6.1c0-9.3,3.9-15.6,13.9-15.6c11.3,0,13.1,8.8,13.1,13.1c0,7.5-3.1,11.4-8.6,16.1l-6.9,6
				c-2.7,2.3-4.6,5.1-5.3,8.4h21V286z"/>
		</g>
	</g>
</g>
</svg>
